<?xml version="1.0" standalone="no"?>
<!DOCTYPE svg PUBLIC "-//W3C//DTD SVG 20010904//EN"
 "http://www.w3.org/TR/2001/REC-SVG-20010904/DTD/svg10.dtd">
<svg version="1.0" xmlns="http://www.w3.org/2000/svg"
 width="355" height="140" viewBox="0 0 355.000000 140.000000"
 preserveAspectRatio="xMidYMid meet">
<metadata>
Created by potrace 1.16, written by Peter Selinger 2001-2019
</metadata>
<g transform="translate(0.000000,140.000000) scale(0.100000,-0.100000)"
fill="#C9A84C" stroke="none">
<path d="M1965 1144 c-176 -26 -308 -76 -571 -217 -99 -53 -106 -55 -288 -86
-356 -59 -556 -122 -639 -200 -62 -58 -88 -110 -95 -187 -7 -87 1 -110 40
-123 47 -15 242 -33 313 -29 56 3 60 4 60 28 0 25 0 25 -122 31 -146 8 -231
18 -237 28 -3 4 0 38 6 74 19 115 81 168 268 230 118 40 182 54 432 96 189 33
211 41 413 149 230 123 345 152 602 152 90 0 197 -5 236 -11 134 -20 339 -75
480 -130 43 -16 124 -41 181 -54 153 -36 156 -38 156 -82 0 -25 9 -52 26 -77
25 -37 26 -44 21 -132 -3 -50 -10 -101 -16 -112 -9 -17 -72 -41 -211 -81 -32
-10 -34 -45 -2 -49 30 -5 215 53 240 75 28 25 42 75 49 175 6 83 5 88 -25 140
-20 37 -28 62 -25 81 10 52 -14 70 -138 101 -63 16 -199 57 -304 92 -271 90
-413 116 -640 120 -99 1 -193 0 -210 -2z"/>
<path d="M1447 826 c-34 -14 -2 -18 63 -8 55 8 55 8 7 13 -26 2 -58 0 -70 -5z"/>
<path d="M1004 680 c-55 -17 -127 -73 -158 -123 -77 -125 -7 -293 135 -327 83
-20 154 0 236 67 97 80 111 224 30 311 -59 63 -168 95 -243 72z m163 -86 c75
-55 94 -142 50 -225 -59 -112 -233 -127 -308 -26 -20 26 -24 44 -24 98 0 56 4
71 28 102 43 57 90 78 164 74 44 -2 71 -9 90 -23z"/>
<path d="M2682 680 c-100 -41 -164 -133 -164 -238 0 -200 236 -290 390 -148
46 42 92 131 92 177 -1 83 -63 170 -146 205 -37 16 -137 18 -172 4z m130 -60
c105 -30 155 -136 109 -235 -62 -138 -257 -152 -320 -23 -49 103 -3 215 105
253 48 17 59 18 106 5z"/>
<path d="M1320 345 c-7 -8 -10 -22 -6 -30 5 -13 76 -15 574 -15 600 0 603 0
586 44 -6 14 -59 16 -574 16 -490 0 -569 -2 -580 -15z"/>
</g>
</svg>
